<?xml version="1.0" standalone="no"?><!DOCTYPE svg PUBLIC "-//W3C//DTD SVG 1.1//EN" "http://www.w3.org/Graphics/SVG/1.1/DTD/svg11.dtd"><svg t="1625281334089" class="icon" viewBox="0 0 1024 1024" version="1.1" xmlns="http://www.w3.org/2000/svg" p-id="1996" xmlns:xlink="http://www.w3.org/1999/xlink" width="200" height="200"><defs><style type="text/css"></style></defs><path d="M74.7 130.6h376c34.6 0 62.7 28.1 62.7 62.7S485.3 256 450.7 256h-376C40.1 256 12 227.9 12 193.3s28.1-62.7 62.7-62.7z m0 313.4h376c34.6 0 62.7 28.1 62.7 62.7s-28.1 62.7-62.7 62.7h-376c-34.6 0-62.7-28.1-62.7-62.7S40.1 444 74.7 444z m0 313.3h376c34.6 0 62.7 28.1 62.7 62.7s-28.1 62.7-62.7 62.7h-376C40.1 882.6 12 854.6 12 820s28.1-62.7 62.7-62.7zM905 362.9c24.5 24.5 64.2 24.5 88.6 0 24.5-24.5 24.5-64.2 0-88.6L816.4 97c-24.5-24.5-64.2-24.5-88.6 0L550.5 274.3c-24.5 24.5-24.5 64.2 0 88.6 24.5 24.5 64.2 24.5 88.6 0l70.3-70.3v590c0 34.6 28.1 62.7 62.7 62.7s62.7-28.1 62.7-62.7v-590l70.2 70.3z" p-id="1997" fill="#d81e06"></path></svg>