<?xml version="1.0" standalone="no"?><!DOCTYPE svg PUBLIC "-//W3C//DTD SVG 1.1//EN" "http://www.w3.org/Graphics/SVG/1.1/DTD/svg11.dtd"><svg t="1625215110507" class="icon" viewBox="0 0 1024 1024" version="1.1" xmlns="http://www.w3.org/2000/svg" p-id="4176" xmlns:xlink="http://www.w3.org/1999/xlink" width="200" height="200"><defs><style type="text/css"></style></defs><path d="M924.881 410.065c-6.446-19.874-17.314-34.257-29.789-44.38a87.622 87.622 0 0 0-52.224-19.387l-183.505-4.678-60.975-172.31a89.228 89.228 0 0 0-34.42-43.986 92.602 92.602 0 0 0-51.921-15.314c-20.783 0-37.865 5.958-51.503 14.778a87.226 87.226 0 0 0-34.607 43.52l-61.184 173.336-182.341 4.747c-15.43 0.233-35.561 5.586-52.527 19.084a92.695 92.695 0 0 0-30.534 44.684c-6.47 19.921-6.167 37.91-2.048 53.34a87.505 87.505 0 0 0 30.86 46.453c31.209 31.185 105.751 81.129 145.664 111.732l-51.945 175.22a88.692 88.692 0 0 0 2.095 55.6A93.09 93.09 0 0 0 257 895.51c16.872 12.218 34.164 17.501 50.339 18.362a86.993 86.993 0 0 0 53.457-14.964l151.32-104.192L664.133 898.91a87.04 87.04 0 0 0 53.457 14.964c16.128-0.86 33.466-6.144 50.34-18.362a92.672 92.672 0 0 0 33.023-43.008c7.843-20.945 6.54-42.193 1.746-56.855a20025.041 20025.041 0 0 0-30.488-101.679l-21.806-72.308 143.965-110.36c12.52-9.076 26.089-25.553 32.116-47.173a93.068 93.068 0 0 0-1.606-54.063zM867.05 473.6L696.692 604.23c20.504 69.097 41.147 136.308 61.743 205.777 3.793 11.683 2.537 33.001-17.874 47.826s-39.47 10.147-50.292 2.723L512.023 738.42l-177.5 122.136c-10.823 7.4-29.883 12.101-50.293-2.723s-21.667-36.143-17.874-47.826l61.045-205.777-170.915-131.026c-10.38-8.005-20.76-24.669-12.963-48.663 7.796-24.017 27.694-31.79 39.96-31.767l214.457-5.562 71.82-203.264c4.399-12.335 17.036-27.37 42.263-27.37 25.251 0 38.796 16.501 42.566 28.16l71.564 202.474 215.435 5.469c13.103 0.372 31.302 7.75 39.099 31.744s-3.724 42.007-13.638 49.175z" p-id="4177"></path></svg>