<?xml version="1.0" standalone="no"?><!DOCTYPE svg PUBLIC "-//W3C//DTD SVG 1.1//EN" "http://www.w3.org/Graphics/SVG/1.1/DTD/svg11.dtd"><svg t="1625729066338" class="icon" viewBox="0 0 1066 1024" version="1.1" xmlns="http://www.w3.org/2000/svg" p-id="2396" xmlns:xlink="http://www.w3.org/1999/xlink" width="208.203125" height="200"><defs><style type="text/css"></style></defs><path d="M455.125333 761.002667l-68.522666 34.005333a73.258667 73.258667 0 0 1-104.96-76.288l11.093333-75.690667a128 128 0 0 0-35.114667-108.16L204.117333 480.213333a73.258667 73.258667 0 0 1 40.106667-123.434666l75.392-12.8a128 128 0 0 0 92.032-66.858667l35.456-67.754667a73.258667 73.258667 0 0 1 129.792 0l35.456 67.754667a128 128 0 0 0 92.032 66.858667l75.392 12.8a73.258667 73.258667 0 0 1 40.106667 123.434666l-53.504 54.613334a128 128 0 0 0-35.114667 108.202666l11.093333 75.690667a73.258667 73.258667 0 0 1-104.96 76.288l-68.522666-34.005333a128 128 0 0 0-113.749334 0z" fill="#FFCE16" p-id="2397"></path><path d="M665.856 330.922667c-52.138667 10.496-94.805333 8.362667-128-6.4-31.829333-14.122667-47.701333-64.512-47.616-151.168a73.002667 73.002667 0 0 1 86.613333 36.010666l35.498667 67.754667a128 128 0 0 0 53.504 53.76z" fill="#FFE33F" p-id="2398"></path><path d="M293.973333 630.656c40.021333-6.656 78.208 1.194667 114.602667 23.552 84.053333 51.712 155.136 64.64 226.261333 19.413333 71.082667-45.226667 45.226667-142.208 103.424-200.405333 24.618667-24.618667 57.941333-45.781333 99.968-63.488a73.258667 73.258667 0 0 1-18.346666 70.442667l-53.504 54.698666a128 128 0 0 0-35.114667 108.16l11.093333 75.690667a73.258667 73.258667 0 0 1-104.96 76.288l-68.522666-34.005333a128 128 0 0 0-113.749334 0l-68.522666 34.005333a73.258667 73.258667 0 0 1-104.96-76.288l11.093333-75.690667c0.64-4.096 1.024-8.234667 1.237333-12.373333z" fill="#FFAC0D" p-id="2399"></path><path d="M402.693781 400.786085a42.666667 58.197333 41 1 0 76.361772-87.84417 42.666667 58.197333 41 1 0-76.361772 87.84417Z" fill="#FFFFFF" p-id="2400"></path></svg>